<svg viewBox="0 0 71 72" fill="none" xmlns="http://www.w3.org/2000/svg"><path d="M1.136 42.105c1.234 3.414 3.068 7.118 5.648 9.276 5.721 4.788 6.948 6.36 9.06 15.935s11.92 1.504 11.92 1.504 2.93-1.983 7.839.79a8.034 8.034 0 004.373.753c4.087-.205 11.77-1.91 18.032-10.912 8.991-12.926 14.236-16.756 12.738-28.246-1.498-11.49-3.202-17.44-16.144-19.423C45.78 10.43 38.51 5.739 34.772 2.89a13.871 13.871 0 00-.776-.552A13.91 13.91 0 0023.445.293a21.155 21.155 0 00-9.338 4.75 23.975 23.975 0 00-3.373 3.512 25.413 25.413 0 00-3.973 7.274A90.613 90.613 0 012.155 26.91 18.999 18.999 0 00.2 32.817a19.244 19.244 0 00.935 9.288z" fill="#828A9E"/><path d="M22.18 64.9a1.088 1.088 0 001.088-1.066c.195-6.562-3.498-9.764-3.657-9.897a1.086 1.086 0 00-1.505.153 1.097 1.097 0 00.097 1.516c.135.117 3.049 2.714 2.886 8.16a1.1 1.1 0 00.643 1.032c.13.059.27.091.414.096l.033.007zM7.282 38.274a1.089 1.089 0 00.856-.416c.18-.228.262-.517.228-.805-.66-5.641 1.16-8.437 1.179-8.464a1.098 1.098 0 00-.277-1.523 1.086 1.086 0 00-1.516.278c-.095.137-2.317 3.425-1.55 9.964a1.097 1.097 0 001.08.966zM50.424 38.274a1.086 1.086 0 00.854-.414 1.096 1.096 0 00.208-.93c-1.15-4.954-5.727-6.535-7.986-6.68a1.087 1.087 0 00-.79.27 1.096 1.096 0 00.649 1.915c.211.014 4.938.408 6.004 4.992a1.095 1.095 0 001.06.847zM61.96 41.374c.265 0 .523-.098.722-.275 3.56-3.168 3.019-8.425 2.994-8.647a1.087 1.087 0 00-1.934-.563c-.18.227-.264.516-.232.805.004.043.431 4.361-2.274 6.766a1.095 1.095 0 00.723 1.914zM37.8 43.38c2.006 0 3.633-1.286 3.633-2.872 0-1.587-1.627-2.873-3.633-2.873-2.006 0-3.633 1.287-3.633 2.873 0 1.586 1.627 2.872 3.633 2.872zM35.556 57.171c1.825-1.663 2.667-3.715 1.882-4.583-.785-.868-2.9-.224-4.725 1.44-1.824 1.663-2.667 3.715-1.882 4.583.786.868 2.901.224 4.725-1.44zM53.561 54.851c.942-1.92.474-4.087-1.047-4.839-1.521-.752-3.518.194-4.46 2.114-.942 1.92-.474 4.087 1.047 4.84 1.521.752 3.518-.195 4.46-2.115zM20.694 48.9c1.667-1.673 1.257-4.798-.915-6.979-2.172-2.18-5.285-2.592-6.951-.919-1.667 1.674-1.258 4.798.915 6.98 2.172 2.18 5.284 2.592 6.95.918zM26.142 28.218c3.851-.822 6.49-3.766 5.896-6.575-.596-2.81-4.2-4.42-8.05-3.598-3.852.822-6.491 3.766-5.896 6.576.595 2.809 4.2 4.42 8.05 3.597zM10.735 8.552c2.406 1.83 6.122 3.004 10.294 3.004 7.259 0 13.139-3.554 13.139-7.934 0-.433-.06-.865-.175-1.283A13.91 13.91 0 0023.443.293a21.154 21.154 0 00-9.335 4.75 23.977 23.977 0 00-3.373 3.509zM49.8 18.14c.41 0 .666-.02.714-.023.288-.023.555-.16.742-.381a1.097 1.097 0 00-.124-1.543 1.087 1.087 0 00-.793-.257c-.076.006-5.084.351-8.115-2.855a1.088 1.088 0 00-1.88.726c-.007.29.1.572.3.782 3.04 3.214 7.443 3.551 9.157 3.551z" fill="#62667C"/></svg>
