<svg width="56" height="48" viewBox="0 0 56 48" fill="none" xmlns="http://www.w3.org/2000/svg"><path d="M44.828 7.093a1.251 1.251 0 100-2.502 1.251 1.251 0 000 2.502z" fill="#000"/><path d="M37.74 46.258c-.233-.812-.867-1.837-1.564-2.55a5.96 5.96 0 00-2.508-1.53 7.533 7.533 0 01-1.44-3.704 12.037 12.037 0 005.623-7.224c1.175-.291 3.52-1.095 4.658-3.031.229.172.423.386.572.632a1.03 1.03 0 001.418.306 1.927 1.927 0 012.182.123 1.024 1.024 0 001.65-.578 4.598 4.598 0 00-.275-2.905 4.552 4.552 0 00-1.964-2.143 11.535 11.535 0 001.453-5.583c2.242-.49 7.047-1.844 7.62-4.537.302-1.129.474-2.289.514-3.458a1.043 1.043 0 00-.468-.728 1.024 1.024 0 00-.853-.116 27.7 27.7 0 01-5.506 1.014c.14-.119.281-.245.425-.38C51.27 8.01 52.83 7.389 54.84 7.65a1.02 1.02 0 001.07-.6c.06-.134.091-.28.091-.427 0-.195-.04-4.8-3.443-6.181-2.17-.882-3.299-.251-4.205.255a2.71 2.71 0 01-1.34.47c-.183.003-.4 0-.641 0-2.393-.024-7.987-.077-8.878 5.719-.079.512-.148.999-.214 1.463-.627 4.417-.862 6.07-5.853 7.21-6.467 1.477-12.23 3.704-17.266 16.06a4.927 4.927 0 01-1.73 2.362 4.868 4.868 0 01-2.755.953 6.103 6.103 0 01-3.21-.769 6.164 6.164 0 01-2.352-2.332c-.808-1.62-.485-3.416.935-5.195a1.042 1.042 0 00-.106-1.414 1.024 1.024 0 00-1.406.016c-.153.148-3.749 3.671-3.526 8.074.123 2.476 1.407 4.691 3.815 6.585a11.58 11.58 0 007.334 2.594c3.83 0 7.524-1.767 10.4-3.671a4.58 4.58 0 01-.464 2.062 1.043 1.043 0 00.015.934 11.43 11.43 0 011.15 4.441c0 .275-.193 1.548 0 1.742h15.713c0-.275 0-.931-.233-1.742zM5.091 38.264C3.178 36.76 2.16 35.062 2.065 33.22a5.85 5.85 0 01.02-.88c.064.152.128.296.192.422A8.21 8.21 0 005.42 35.95a8.128 8.128 0 004.335 1.053 6.919 6.919 0 003.853-1.326 7 7 0 002.456-3.273c4.67-11.454 9.712-13.431 15.818-14.826 6.372-1.455 6.795-4.431 7.435-8.937.065-.456.133-.936.21-1.44.572-3.712 3.82-3.995 6.827-3.966.264 0 .501.004.705 0a4.613 4.613 0 002.296-.729c.734-.41 1.176-.658 2.438-.146 1.335.542 1.843 2.087 2.037 3.159-2.077.044-3.916.931-5.945 2.824-1.76 1.642-2.829 1.587-2.8 1.593a1.022 1.022 0 00-.74.159 1.036 1.036 0 00-.322 1.38c.13.228.343.398.593.474 2.854.842 6.725.16 8.833-.338-.07.385-.164.872-.294 1.485-.273 1.281-4.172 2.63-6.882 3.111a1.029 1.029 0 00-.652.41 1.043 1.043 0 00-.189.75c.319 2.353-.712 4.54-1.302 5.566a9.262 9.262 0 00-2.97-.492 1.022 1.022 0 00-.71.363 1.039 1.039 0 00.897 1.7 10.25 10.25 0 012.885.638c.01.004.02 0 .03.005.01.006.03.015.046.019.447.078.863.276 1.207.573.344.296.603.681.748 1.113a4.016 4.016 0 00-2.013.151 2.927 2.927 0 00-2.468-1.03 1.026 1.026 0 00-.816.697c-.42 1.267-1.776 1.967-2.817 2.33a10.85 10.85 0 00-1.309-5.343 1.036 1.036 0 00-.62-.491 1.024 1.024 0 00-1.087.357 1.041 1.041 0 00-.09 1.15A9.037 9.037 0 0136 30.157a9.93 9.93 0 01-1.86 3.979 9.838 9.838 0 01-3.386 2.774 1.03 1.03 0 00-.623.98 9.372 9.372 0 002.207 5.91c.13.137.295.235.477.285.573.14 1.108.409 1.566.785.457.376.826.85 1.078 1.388h-5.21c-.5-3.774-2.62-7.21-3.498-8.496a8.251 8.251 0 00.693-4.204 7.418 7.418 0 00-.262-4.287 7.359 7.359 0 00-2.59-3.41 1.023 1.023 0 00-1.432.2 1.042 1.042 0 00.183 1.446 5.245 5.245 0 011.888 2.397c.379.97.463 2.032.241 3.05C24.028 34.44 13.41 44.81 5.091 38.267v-.003zm18.058 3.054a6.6 6.6 0 00.311-3.856c.65-.5 1.234-.983 1.73-1.416-.133.46-.313.903-.538 1.325a1.043 1.043 0 00.09 1.118c.03.04 2.793 3.736 3.428 7.766h-3.858a13.276 13.276 0 00-1.163-4.935v-.002z" fill="#000"/></svg>